<svg xmlns="http://www.w3.org/2000/svg" width="512" height="512" viewBox="0 0 512 512" fill="none"><metadata><rdf:RDF xmlns:rdf="http://www.w3.org/1999/02/22-rdf-syntax-ns#" xmlns:dc="http://purl.org/dc/elements/1.1/"><rdf:Description><dc:creator>RealFaviconGenerator</dc:creator><dc:source>https://realfavicongenerator.net</dc:source></rdf:Description></rdf:RDF></metadata><rect width="512" height="512" fill="#F8F6F2"></rect><path d="M229.2 184.24V330.8C229.2 336.56 229.84 340.933 231.12 343.92C232.4 346.907 234.853 348.933 238.48 350C242.32 350.853 247.76 351.28 254.8 351.28H289.68C302.053 351.28 311.867 347.44 319.12 339.76C326.373 331.867 331.067 321.627 333.2 309.04C333.2 308.4 333.733 308.187 334.8 308.4C336.08 308.4 336.72 308.72 336.72 309.36C336.08 315.12 335.44 322.16 334.8 330.48C334.16 338.587 333.84 346.16 333.84 353.2C333.84 356.4 332.24 358 329.04 358H181.2C180.773 358 180.56 357.36 180.56 356.08C180.56 354.8 180.773 354.16 181.2 354.16C188.88 354.16 194.64 353.627 198.48 352.56C202.533 351.493 205.2 349.36 206.48 346.16C207.76 342.96 208.4 338.267 208.4 332.08V183.92C208.4 177.733 207.76 173.147 206.48 170.16C205.2 166.96 202.533 164.827 198.48 163.76C194.64 162.48 188.88 161.84 181.2 161.84C180.773 161.84 180.56 161.2 180.56 159.92C180.56 158.64 180.773 158 181.2 158C186.32 158 192.08 158.213 198.48 158.64C204.88 158.853 211.6 158.96 218.64 158.96C226.107 158.96 233.04 158.853 239.44 158.64C245.84 158.213 251.493 158 256.4 158C257.04 158 257.36 158.64 257.36 159.92C257.36 161.2 257.04 161.84 256.4 161.84C248.72 161.84 242.853 162.48 238.8 163.76C234.96 164.827 232.4 166.96 231.12 170.16C229.84 173.36 229.2 178.053 229.2 184.24Z" fill="#222222"></path></svg>