<svg xmlns="http://www.w3.org/2000/svg" width="512" height="512" viewBox="0 0 512 512" fill="none"><metadata><rdf:RDF xmlns:rdf="http://www.w3.org/1999/02/22-rdf-syntax-ns#" xmlns:dc="http://purl.org/dc/elements/1.1/"><rdf:Description><dc:creator>RealFaviconGenerator</dc:creator><dc:source>https://realfavicongenerator.net</dc:source></rdf:Description></rdf:RDF></metadata><rect width="512" height="512" fill="white"></rect><path d="M253.04 341.24C238.747 341.24 224.987 339.427 211.76 335.8C198.747 331.96 188.4 327.373 180.72 322.04L196.08 291.64C203.76 296.547 212.933 300.6 223.6 303.8C234.267 307 244.933 308.6 255.6 308.6C268.187 308.6 277.253 306.893 282.8 303.48C288.56 300.067 291.44 295.48 291.44 289.72C291.44 285.027 289.52 281.507 285.68 279.16C281.84 276.6 276.827 274.68 270.64 273.4C264.453 272.12 257.52 270.947 249.84 269.88C242.373 268.813 234.8 267.427 227.12 265.72C219.653 263.8 212.827 261.133 206.64 257.72C200.453 254.093 195.44 249.293 191.6 243.32C187.76 237.347 185.84 229.453 185.84 219.64C185.84 208.76 188.933 199.373 195.12 191.48C201.307 183.373 209.947 177.187 221.04 172.92C232.347 168.44 245.68 166.2 261.04 166.2C272.56 166.2 284.187 167.48 295.92 170.04C307.653 172.6 317.36 176.227 325.04 180.92L309.68 211.32C301.573 206.413 293.36 203.107 285.04 201.4C276.933 199.48 268.827 198.52 260.72 198.52C248.56 198.52 239.493 200.333 233.52 203.96C227.76 207.587 224.88 212.173 224.88 217.72C224.88 222.84 226.8 226.68 230.64 229.24C234.48 231.8 239.493 233.827 245.68 235.32C251.867 236.813 258.693 238.093 266.16 239.16C273.84 240.013 281.413 241.4 288.88 243.32C296.347 245.24 303.173 247.907 309.36 251.32C315.76 254.52 320.88 259.107 324.72 265.08C328.56 271.053 330.48 278.84 330.48 288.44C330.48 299.107 327.28 308.387 320.88 316.28C314.693 324.173 305.84 330.36 294.32 334.84C282.8 339.107 269.04 341.24 253.04 341.24Z" fill="black"></path></svg>