<svg width="32" height="32" viewBox="0 0 32 32" fill="none" xmlns="http://www.w3.org/2000/svg">
<path d="M19.7839 22.5168C19.8377 22.5168 19.8909 22.5059 19.9404 22.4849C19.9899 22.4639 20.0346 22.4331 20.0719 22.3944L25.9591 16.2896C26.0308 16.2151 26.0708 16.1157 26.0708 16.0124C26.0708 15.909 26.0308 15.8097 25.9591 15.7352L20.0463 9.60556C20.0105 9.56548 19.967 9.53303 19.9183 9.51016C19.8696 9.48729 19.8169 9.47446 19.7631 9.47245C19.7094 9.47043 19.6558 9.47927 19.6056 9.49843C19.5554 9.5176 19.5095 9.54669 19.4708 9.58397C19.432 9.62126 19.4012 9.66597 19.3801 9.71544C19.3591 9.7649 19.3482 9.81811 19.3481 9.87188C19.3481 9.92564 19.3589 9.97887 19.3799 10.0284C19.4009 10.0779 19.4317 10.1226 19.4703 10.16L25.1151 16.012L19.4959 21.8392C19.4415 21.8957 19.4048 21.967 19.3906 22.0441C19.3763 22.1213 19.3851 22.201 19.4158 22.2732C19.4465 22.3455 19.4978 22.4071 19.5632 22.4504C19.6287 22.4937 19.7055 22.5168 19.7839 22.5168Z" fill="#222222"/>
<path d="M6.32822 16.4121H25.6722C25.7783 16.4121 25.8801 16.3699 25.9551 16.2949C26.0301 16.2199 26.0722 16.1181 26.0722 16.0121C26.0722 15.906 26.0301 15.8042 25.9551 15.7292C25.8801 15.6542 25.7783 15.6121 25.6722 15.6121H6.32822C6.22214 15.6121 6.12039 15.6542 6.04538 15.7292C5.97037 15.8042 5.92822 15.906 5.92822 16.0121C5.92822 16.1181 5.97037 16.2199 6.04538 16.2949C6.12039 16.3699 6.22214 16.4121 6.32822 16.4121Z" fill="#222222"/>
</svg>
