<svg width="12" height="12" viewBox="0 0 12 12" fill="none" xmlns="http://www.w3.org/2000/svg">
<path d="M3.5 3C3.10218 3 2.72064 3.15804 2.43934 3.43934C2.15804 3.72064 2 4.10218 2 4.5V7.5C2 7.89782 2.15804 8.27936 2.43934 8.56066C2.72064 8.84196 3.10218 9 3.5 9H8.5C8.89782 9 9.27936 8.84196 9.56066 8.56066C9.84196 8.27936 10 7.89782 10 7.5V4.5C10 4.10218 9.84196 3.72064 9.56066 3.43934C9.27936 3.15804 8.89782 3 8.5 3H3.5ZM3 4.5C3 4.36739 3.05268 4.24021 3.14645 4.14645C3.24021 4.05268 3.36739 4 3.5 4H8.5C8.63261 4 8.75979 4.05268 8.85355 4.14645C8.94732 4.24021 9 4.36739 9 4.5V4.67L6 5.956L3 4.67V4.5ZM3 5.758L5.803 6.959C5.86525 6.98569 5.93227 6.99944 6 6.99944C6.06773 6.99944 6.13475 6.98569 6.197 6.959L9 5.758V7.5C9 7.63261 8.94732 7.75979 8.85355 7.85355C8.75979 7.94732 8.63261 8 8.5 8H3.5C3.36739 8 3.24021 7.94732 3.14645 7.85355C3.05268 7.75979 3 7.63261 3 7.5V5.758Z" fill="#B7ADA0"/>
</svg>
