<svg width="32" height="32" viewBox="0 0 32 32" fill="none" xmlns="http://www.w3.org/2000/svg">
<path d="M20.6663 14.6667C20.6663 14.0538 20.5456 13.447 20.3111 12.8808C20.0766 12.3146 19.7328 11.8002 19.2995 11.3668C18.8662 10.9335 18.3517 10.5898 17.7855 10.3552C17.2193 10.1207 16.6125 10 15.9997 10C15.3868 10 14.78 10.1207 14.2138 10.3552C13.6476 10.5898 13.1332 10.9335 12.6998 11.3668C12.2665 11.8002 11.9228 12.3146 11.6882 12.8808C11.4537 13.447 11.333 14.0538 11.333 14.6667C11.333 15.9043 11.8247 17.0913 12.6998 17.9665C13.575 18.8417 14.762 19.3333 15.9997 19.3333C17.2374 19.3333 18.4243 18.8417 19.2995 17.9665C20.1747 17.0913 20.6663 15.9043 20.6663 14.6667Z" stroke="#8B6B5C" stroke-width="2" stroke-linecap="round" stroke-linejoin="round"/>
<path d="M29.3332 22C29.3332 18.3187 26.0505 15.3333 21.9998 15.3333C21.526 15.3324 21.074 15.2658 20.6438 15.1333M21.9998 15.3333C22.9029 15.3332 23.7865 15.071 24.5435 14.5787C25.3005 14.0863 25.8984 13.3849 26.2647 12.5594C26.6309 11.734 26.7499 10.82 26.607 9.92832C26.4641 9.03665 26.0656 8.20558 25.4597 7.5359C24.8539 6.86623 24.0668 6.38672 23.1938 6.15553C22.3209 5.92433 21.3996 5.95139 20.5417 6.23341C19.6838 6.51543 18.9262 7.04031 18.3607 7.74438C17.7952 8.44845 17.4461 9.30147 17.3558 10.2M14.6438 10.2C14.5474 9.24323 14.1578 8.3396 13.5283 7.61269C12.8988 6.88578 12.0601 6.3711 11.1269 6.13903C10.1937 5.90696 9.21158 5.96885 8.31489 6.31621C7.41821 6.66358 6.65074 7.27947 6.11743 8.07965C5.58412 8.87982 5.31103 9.82522 5.3355 10.7865C5.35997 11.7478 5.68081 12.6781 6.25413 13.4501C6.82746 14.2221 7.62528 14.7982 8.53848 15.0994C9.45167 15.4007 10.4356 15.4126 11.3558 15.1333M23.3331 26C23.3331 22.3187 20.0505 19.3333 15.9998 19.3333C11.9491 19.3333 8.66648 22.3187 8.66648 26" stroke="#8B6B5C" stroke-width="2" stroke-linecap="round" stroke-linejoin="round"/>
<path d="M9.99984 15.3333C5.94917 15.3333 2.6665 18.3186 2.6665 22" stroke="#8B6B5C" stroke-width="2" stroke-linecap="round" stroke-linejoin="round"/>
</svg>
