<svg width="32" height="32" viewBox="0 0 32 32" fill="none" xmlns="http://www.w3.org/2000/svg">
<path d="M8.66667 22.6666L6 28H26L23.3333 22.6666M16 14.6666C16.7072 14.6666 17.3855 14.3857 17.8856 13.8856C18.3857 13.3855 18.6667 12.7072 18.6667 12C18.6667 11.2927 18.3857 10.6145 17.8856 10.1144C17.3855 9.61426 16.7072 9.33331 16 9.33331C15.2928 9.33331 14.6145 9.61426 14.1144 10.1144C13.6143 10.6145 13.3333 11.2927 13.3333 12C13.3333 12.7072 13.6143 13.3855 14.1144 13.8856C14.6145 14.3857 15.2928 14.6666 16 14.6666Z" stroke="#8B6B5C" stroke-width="2" stroke-linecap="round" stroke-linejoin="round"/>
<path d="M16.5976 23.7867C16.4287 23.924 16.2178 23.9989 16.0002 23.9989C15.7826 23.9989 15.5717 23.924 15.4029 23.7867C10.2536 19.7067 4.78422 11.316 10.3109 5.25332C11.8202 3.59599 13.8669 2.66666 16.0002 2.66666C18.1336 2.66666 20.1802 3.59599 21.6896 5.25199C27.2162 11.3147 21.7482 19.7053 16.5962 23.788" stroke="#8B6B5C" stroke-width="2" stroke-linecap="round" stroke-linejoin="round"/>
</svg>
