<svg width="32" height="32" viewBox="0 0 32 32" fill="none" xmlns="http://www.w3.org/2000/svg">
<path d="M6.66667 14.6667L8.66667 8.66666H23.3333L25.3333 14.6667M23.3333 21.3333C22.8029 21.3333 22.2942 21.1226 21.9191 20.7475C21.544 20.3725 21.3333 19.8638 21.3333 19.3333C21.3333 18.8029 21.544 18.2942 21.9191 17.9191C22.2942 17.544 22.8029 17.3333 23.3333 17.3333C23.8638 17.3333 24.3725 17.544 24.7475 17.9191C25.1226 18.2942 25.3333 18.8029 25.3333 19.3333C25.3333 19.8638 25.1226 20.3725 24.7475 20.7475C24.3725 21.1226 23.8638 21.3333 23.3333 21.3333ZM8.66667 21.3333C8.13623 21.3333 7.62753 21.1226 7.25245 20.7475C6.87738 20.3725 6.66667 19.8638 6.66667 19.3333C6.66667 18.8029 6.87738 18.2942 7.25245 17.9191C7.62753 17.544 8.13623 17.3333 8.66667 17.3333C9.1971 17.3333 9.70581 17.544 10.0809 17.9191C10.456 18.2942 10.6667 18.8029 10.6667 19.3333C10.6667 19.8638 10.456 20.3725 10.0809 20.7475C9.70581 21.1226 9.1971 21.3333 8.66667 21.3333ZM25.2267 7.99999C24.96 7.22666 24.2133 6.66666 23.3333 6.66666H8.66667C7.78667 6.66666 7.04 7.22666 6.77333 7.99999L4 16V26.6667C4 27.0203 4.14048 27.3594 4.39052 27.6095C4.64057 27.8595 4.97971 28 5.33333 28H6.66667C7.02029 28 7.35943 27.8595 7.60948 27.6095C7.85952 27.3594 8 27.0203 8 26.6667V25.3333H24V26.6667C24 27.0203 24.1405 27.3594 24.3905 27.6095C24.6406 27.8595 24.9797 28 25.3333 28H26.6667C27.0203 28 27.3594 27.8595 27.6095 27.6095C27.8595 27.3594 28 27.0203 28 26.6667V16L25.2267 7.99999Z" fill="#8B6B5C"/>
</svg>
