<svg width="32" height="32" viewBox="0 0 32 32" fill="none" xmlns="http://www.w3.org/2000/svg">
<path d="M25.9998 29.3333C26.5303 29.3333 27.039 29.1226 27.4141 28.7475C27.7891 28.3725 27.9998 27.8638 27.9998 27.3333V22.6667C27.9998 22.1362 27.7891 21.6275 27.4141 21.2525C27.039 20.8774 26.5303 20.6667 25.9998 20.6667C24.4398 20.6667 22.9065 20.4267 21.4398 19.9333C21.0892 19.8227 20.7149 19.8101 20.3576 19.8971C20.0004 19.9841 19.6737 20.1672 19.4132 20.4267L17.4932 22.3467C14.1762 20.5366 11.4499 17.8103 9.63984 14.4933L11.5465 12.5867C12.0932 12.0667 12.2932 11.2933 12.0532 10.5467C11.5732 9.09333 11.3332 7.56 11.3332 6C11.3332 5.46957 11.1225 4.96086 10.7474 4.58579C10.3723 4.21071 9.8636 4 9.33317 4H4.6665C4.13607 4 3.62736 4.21071 3.25229 4.58579C2.87722 4.96086 2.6665 5.46957 2.6665 6C2.6665 18.8667 13.1332 29.3333 25.9998 29.3333ZM4.6665 5.33333H9.33317C9.50998 5.33333 9.67955 5.40357 9.80458 5.5286C9.9296 5.65362 9.99984 5.82319 9.99984 6C9.99984 7.70667 10.2665 9.37333 10.7865 10.96C10.8532 11.1467 10.8398 11.4133 10.6265 11.6267L7.99984 14.24C10.1998 18.5467 13.4265 21.7733 17.7465 24L20.3465 21.3733C20.5332 21.1867 20.7865 21.1333 21.0265 21.2C22.6265 21.7333 24.2932 22 25.9998 22C26.1766 22 26.3462 22.0702 26.4712 22.1953C26.5963 22.3203 26.6665 22.4899 26.6665 22.6667V27.3333C26.6665 27.5101 26.5963 27.6797 26.4712 27.8047C26.3462 27.9298 26.1766 28 25.9998 28C13.8665 28 3.99984 18.1333 3.99984 6C3.99984 5.82319 4.07008 5.65362 4.1951 5.5286C4.32012 5.40357 4.48969 5.33333 4.6665 5.33333Z" fill="#8B6B5C"/>
</svg>
