<svg width="32" height="32" viewBox="0 0 32 32" fill="none" xmlns="http://www.w3.org/2000/svg">
<path d="M6.6665 20.1547V8C6.6665 7.12978 6.91673 6.43022 7.41717 5.90133C7.91762 5.37244 8.59495 4.96711 9.44917 4.68533C10.3034 4.40356 11.2967 4.21956 12.4292 4.13333C13.5616 4.04711 14.7518 4.00267 15.9998 4C17.2958 4 18.5083 4.044 19.6372 4.132C20.7661 4.22 21.7541 4.40356 22.6012 4.68267C23.4483 4.96178 24.1154 5.36667 24.6025 5.89733C25.0896 6.428 25.3332 7.12889 25.3332 8V20.1547C25.3332 21.2258 24.9598 22.1347 24.2132 22.8813C23.4674 23.6271 22.5589 24 21.4878 24L23.4878 26V26.6667H22.3585L19.6918 24H12.3078L9.64117 26.6667H8.51317V26L10.5132 24C9.44117 24 8.53228 23.6267 7.7865 22.88C7.03984 22.1351 6.6665 21.2267 6.6665 20.1547ZM7.99984 14.6667H15.3332V8.71867H7.99984V14.6667ZM16.6665 14.6667H23.9998V8.71867H16.6665V14.6667ZM12.3945 20.4C12.6789 20.1209 12.8212 19.7671 12.8212 19.3387C12.8212 18.9111 12.6812 18.5556 12.4012 18.272C12.1212 17.9884 11.7674 17.8462 11.3398 17.8453C10.9123 17.8444 10.5563 17.9844 10.2718 18.2653C9.98739 18.5462 9.84517 18.9 9.84517 19.3267C9.84517 19.7533 9.98517 20.1093 10.2652 20.3947C10.5452 20.68 10.8994 20.8222 11.3278 20.8213C11.7563 20.8204 12.1118 20.6791 12.3945 20.4ZM21.7278 20.4013C22.0123 20.1213 22.1545 19.7676 22.1545 19.34C22.1545 18.9124 22.0145 18.5564 21.7345 18.272C21.4545 17.9876 21.1007 17.8453 20.6732 17.8453C20.2456 17.8453 19.8896 17.9853 19.6052 18.2653C19.3207 18.5453 19.1785 18.8991 19.1785 19.3267C19.1785 19.7542 19.3185 20.1102 19.5985 20.3947C19.8785 20.6791 20.2323 20.8213 20.6598 20.8213C21.0874 20.8213 21.4434 20.6813 21.7278 20.4013Z" fill="#8B6B5C"/>
</svg>
