<svg xmlns="http://www.w3.org/2000/svg" width="30" height="30" viewBox="0 0 30 30" fill="none"><metadata><rdf:RDF xmlns:rdf="http://www.w3.org/1999/02/22-rdf-syntax-ns#" xmlns:dc="http://purl.org/dc/elements/1.1/"><rdf:Description><dc:creator>RealFaviconGenerator</dc:creator><dc:source>https://realfavicongenerator.net</dc:source></rdf:Description></rdf:RDF></metadata><rect width="30" height="30" fill="#F7F5F2"></rect><path d="M13.308 13.652C13.588 13.652 13.832 13.692 14.04 13.772C14.248 13.852 14.42 13.964 14.556 14.108C14.708 14.268 14.812 14.476 14.868 14.732C14.924 14.988 14.952 15.304 14.952 15.68V18.884C14.952 19.22 15.02 19.448 15.156 19.568C15.3 19.688 15.536 19.748 15.864 19.748V20C15.728 19.992 15.52 19.984 15.24 19.976C14.96 19.96 14.688 19.952 14.424 19.952C14.16 19.952 13.9 19.96 13.644 19.976C13.396 19.984 13.208 19.992 13.08 20V19.748C13.368 19.748 13.572 19.688 13.692 19.568C13.812 19.448 13.872 19.22 13.872 18.884V15.416C13.872 15.168 13.856 14.94 13.824 14.732C13.792 14.524 13.712 14.356 13.584 14.228C13.456 14.1 13.248 14.036 12.96 14.036C12.648 14.036 12.368 14.132 12.12 14.324C11.88 14.516 11.688 14.78 11.544 15.116C11.408 15.444 11.34 15.812 11.34 16.22V18.884C11.34 19.22 11.4 19.448 11.52 19.568C11.64 19.688 11.844 19.748 12.132 19.748V20C12.004 19.992 11.812 19.984 11.556 19.976C11.308 19.96 11.052 19.952 10.788 19.952C10.524 19.952 10.252 19.96 9.972 19.976C9.692 19.984 9.484 19.992 9.348 20V19.748C9.676 19.748 9.908 19.688 10.044 19.568C10.188 19.448 10.26 19.22 10.26 18.884V15.128C10.26 14.768 10.196 14.504 10.068 14.336C9.94 14.16 9.7 14.072 9.348 14.072V13.82C9.604 13.844 9.852 13.856 10.092 13.856C10.324 13.856 10.544 13.844 10.752 13.82C10.968 13.788 11.164 13.744 11.34 13.688V15.104C11.548 14.584 11.832 14.212 12.192 13.988C12.552 13.764 12.924 13.652 13.308 13.652ZM16.92 13.652C17.2 13.652 17.444 13.692 17.652 13.772C17.86 13.852 18.032 13.964 18.168 14.108C18.32 14.268 18.424 14.476 18.48 14.732C18.536 14.988 18.564 15.304 18.564 15.68V18.884C18.564 19.22 18.632 19.448 18.768 19.568C18.912 19.688 19.148 19.748 19.476 19.748V20C19.34 19.992 19.132 19.984 18.852 19.976C18.572 19.96 18.3 19.952 18.036 19.952C17.772 19.952 17.512 19.96 17.256 19.976C17.008 19.984 16.82 19.992 16.692 20V19.748C16.98 19.748 17.184 19.688 17.304 19.568C17.424 19.448 17.484 19.22 17.484 18.884V15.416C17.484 15.168 17.468 14.94 17.436 14.732C17.404 14.524 17.324 14.356 17.196 14.228C17.068 14.1 16.86 14.036 16.572 14.036C16.26 14.036 15.98 14.132 15.732 14.324C15.492 14.516 15.3 14.776 15.156 15.104C15.02 15.432 14.952 15.8 14.952 16.208L14.916 15.092C15.132 14.54 15.424 14.164 15.792 13.964C16.16 13.756 16.536 13.652 16.92 13.652Z" fill="#5C3A2E"></path></svg>