<svg width="32" height="32" viewBox="0 0 32 32" fill="none" xmlns="http://www.w3.org/2000/svg">
<mask id="mask0_7_8" style="mask-type:luminance" maskUnits="userSpaceOnUse" x="2" y="2" width="28" height="28">
<path d="M2.66663 2.66669H29.3333V29.3334H2.66663V2.66669Z" fill="white"/>
</mask>
<g mask="url(#mask0_7_8)">
<path d="M12.4399 16.2934V16.9867C12.4399 17.1067 12.3732 17.16 12.2532 17.16H9.49324C9.33324 17.16 9.27991 17.16 9.27991 16.9467V12.6667C9.27991 12.4934 9.27991 12.44 9.50657 12.44H10.1199C10.2799 12.44 10.3332 12.5067 10.3332 12.6534V16.0667H12.2932C12.332 16.0709 12.3683 16.0881 12.3961 16.1154C12.4239 16.1427 12.4417 16.1787 12.4466 16.2174C12.4518 16.2428 12.4495 16.2692 12.4399 16.2934ZM14.1466 12.6534V16.9467C14.1466 17.1067 14.1466 17.16 13.9199 17.16C13.7066 17.1734 13.4932 17.1734 13.2799 17.16C13.2509 17.1646 13.2211 17.1622 13.1932 17.1531C13.1652 17.144 13.1398 17.1284 13.119 17.1076C13.0982 17.0868 13.0826 17.0614 13.0735 17.0334C13.0644 17.0055 13.062 16.9758 13.0666 16.9467V12.6534C13.0595 12.6183 13.062 12.5821 13.0737 12.5483C13.0854 12.5146 13.1059 12.4846 13.1331 12.4614C13.1603 12.4383 13.1932 12.4229 13.2284 12.4168C13.2636 12.4107 13.2998 12.4141 13.3332 12.4267H13.9599C13.9874 12.4283 14.0143 12.4355 14.0389 12.448C14.0635 12.4605 14.0853 12.4779 14.1028 12.4992C14.1203 12.5205 14.1333 12.5452 14.1408 12.5717C14.1483 12.5982 14.1503 12.626 14.1466 12.6534ZM18.9866 12.64V16.9467C18.9866 17.0934 18.9866 17.1467 18.7732 17.1467H18.0932C18.062 17.1478 18.031 17.1411 18.003 17.1271C17.9751 17.1131 17.9511 17.0924 17.9332 17.0667L16.9332 15.7334L15.9999 14.4667V14.3734V16.96C15.9999 17.1467 15.9999 17.1867 15.7732 17.1867H15.1599C15.116 17.1936 15.0711 17.1847 15.0332 17.1615C14.9953 17.1383 14.967 17.1023 14.9532 17.06C14.9442 17.0321 14.9419 17.0024 14.9466 16.9734V12.6667C14.9446 12.6399 14.9484 12.613 14.9577 12.5879C14.9671 12.5627 14.9817 12.5398 15.0007 12.5209C15.0197 12.5019 15.0426 12.4872 15.0677 12.4779C15.0929 12.4685 15.1198 12.4647 15.1466 12.4667H15.8799C15.9045 12.4706 15.9279 12.4798 15.9486 12.4936C15.9693 12.5074 15.9868 12.5255 15.9999 12.5467L17.4666 14.6667L17.8532 15.1867V15.2534V12.6667C17.8532 12.4934 17.9199 12.4267 18.0932 12.4267H18.6932C18.9066 12.4267 18.9866 12.4934 18.9866 12.64ZM22.8666 12.6667V13.3334C22.8666 13.48 22.8666 13.5467 22.6666 13.5467H20.8666C20.7732 13.5467 20.7732 13.5467 20.7732 13.64V14.2C20.7732 14.3067 20.7732 14.3067 20.8666 14.3067H22.6666C22.8399 14.3067 22.8932 14.3734 22.8932 14.5467V15.16C22.8978 15.1891 22.8954 15.2188 22.8863 15.2468C22.8772 15.2747 22.8616 15.3002 22.8408 15.3209C22.82 15.3417 22.7946 15.3573 22.7666 15.3664C22.7387 15.3755 22.709 15.3779 22.6799 15.3734H20.8666C20.7732 15.3734 20.7732 15.3734 20.7732 15.48V16C20.7732 16.1067 20.7732 16.1067 20.8666 16.1067H22.6666C22.8266 16.1067 22.8799 16.1067 22.8799 16.3334V16.9467C22.8799 17.1067 22.8799 17.16 22.6666 17.16H19.9332C19.6932 17.16 19.7066 17.16 19.7066 16.9467V12.6667C19.7066 12.5067 19.7732 12.44 19.9332 12.44H22.5999C22.8132 12.44 22.8666 12.5067 22.8666 12.6667Z" fill="#222222"/>
<path d="M24 2.66669H7.99996C6.58547 2.66669 5.22892 3.22859 4.22872 4.22878C3.22853 5.22898 2.66663 6.58553 2.66663 8.00002V24C2.66663 25.4145 3.22853 26.7711 4.22872 27.7713C5.22892 28.7715 6.58547 29.3334 7.99996 29.3334H24C25.4144 29.3334 26.771 28.7715 27.7712 27.7713C28.7714 26.7711 29.3333 25.4145 29.3333 24V8.00002C29.3333 6.58553 28.7714 5.22898 27.7712 4.22878C26.771 3.22859 25.4144 2.66669 24 2.66669ZM25.4666 17.3334C25.1277 18.0971 24.6785 18.8069 24.1333 19.44C23.2613 20.4291 22.287 21.323 21.2266 22.1067C19.9991 23.0711 18.7191 23.96 17.3866 24.7734C16.9733 25.0267 16.5466 25.2534 16.12 25.4667C15.9339 25.5764 15.7226 25.6361 15.5066 25.64C15.4586 25.6491 15.409 25.6465 15.3622 25.6325C15.3153 25.6185 15.2724 25.5935 15.2372 25.5595C15.202 25.5256 15.1754 25.4837 15.1596 25.4374C15.1439 25.3911 15.1394 25.3417 15.1466 25.2934C15.1342 25.1113 15.1342 24.9287 15.1466 24.7467C15.235 24.3345 15.2841 23.9148 15.2933 23.4934C15.2968 23.3677 15.2633 23.2439 15.1969 23.1372C15.1306 23.0305 15.0342 22.9457 14.92 22.8934C14.6976 22.7841 14.4589 22.712 14.2133 22.68C12.9302 22.4949 11.6867 22.0984 10.5333 21.5067C9.44654 20.9514 8.48113 20.1854 7.69329 19.2534C6.88728 18.3137 6.33226 17.1853 6.07996 15.9734C6.07996 15.6934 5.99996 15.4134 5.97329 15.12C5.94663 14.8267 5.97329 14.5734 5.97329 14.2934C6.01333 13.5562 6.17553 12.8307 6.45329 12.1467C6.81487 11.2334 7.33888 10.3932 7.99996 9.66669C8.94584 8.6768 10.0849 7.8917 11.3466 7.36002C12.1417 7.04154 12.9687 6.8091 13.8133 6.66669L14.8266 6.53335H17.08C18.6078 6.659 20.0948 7.08971 21.4533 7.80002C22.4 8.28669 23.2613 8.92535 24 9.69335C24.775 10.5026 25.3543 11.4787 25.6933 12.5467C25.84 12.9774 25.9346 13.4267 25.9733 13.88V14.7467C25.9897 15.6351 25.817 16.5168 25.4666 17.3334Z" fill="#222222"/>
<path d="M18.9866 12.64V16.9467C18.9866 17.0934 18.9866 17.1467 18.7732 17.1467H18.0932C18.062 17.1478 18.031 17.1411 18.003 17.1271C17.9751 17.1131 17.9511 17.0924 17.9332 17.0667L16.9332 15.7334L15.9999 14.4667V14.3734V16.96C15.9999 17.1467 15.9999 17.1867 15.7732 17.1867H15.1599C15.116 17.1936 15.0711 17.1847 15.0332 17.1615C14.9953 17.1383 14.967 17.1023 14.9532 17.06C14.9442 17.0321 14.9419 17.0024 14.9466 16.9734V12.6667C14.9446 12.6399 14.9484 12.613 14.9577 12.5879C14.9671 12.5627 14.9817 12.5398 15.0007 12.5209C15.0197 12.5019 15.0426 12.4872 15.0677 12.4779C15.0929 12.4685 15.1198 12.4647 15.1466 12.4667H15.8799C15.9045 12.4706 15.9279 12.4798 15.9486 12.4936C15.9693 12.5074 15.9868 12.5255 15.9999 12.5467L17.4666 14.6667L17.8532 15.1867V15.2534V12.6667C17.8532 12.4934 17.9199 12.4267 18.0932 12.4267H18.6932C18.9066 12.4267 18.9866 12.4934 18.9866 12.64ZM20.7732 13.6V14.16C20.7732 14.2667 20.7732 14.2667 20.8666 14.2667H22.6666C22.8399 14.2667 22.8932 14.3334 22.8932 14.5067V15.12C22.8978 15.1491 22.8954 15.1788 22.8863 15.2068C22.8772 15.2347 22.8616 15.2602 22.8408 15.2809C22.82 15.3017 22.7946 15.3173 22.7666 15.3264C22.7387 15.3355 22.709 15.3379 22.6799 15.3334H20.8666C20.7732 15.3334 20.7732 15.3334 20.7732 15.44V16C20.7732 16.1067 20.7732 16.1067 20.8666 16.1067H22.6666C22.8266 16.1067 22.8799 16.1067 22.8799 16.3334V16.9467C22.8799 17.1067 22.8799 17.16 22.6666 17.16H19.9332C19.6932 17.16 19.7066 17.16 19.7066 16.9467V12.6667C19.7066 12.5067 19.7732 12.44 19.9332 12.44H22.5999C22.7599 12.44 22.8132 12.5067 22.8132 12.6667V13.3334C22.8132 13.48 22.8132 13.5467 22.6132 13.5467H20.8666C20.7732 13.5067 20.7732 13.5067 20.7732 13.6ZM12.4399 16.2934V16.9867C12.4399 17.1067 12.3732 17.16 12.2532 17.16H9.49324C9.33324 17.16 9.27991 17.16 9.27991 16.9467V12.6667C9.27991 12.4934 9.27991 12.44 9.50657 12.44H10.1199C10.2799 12.44 10.3332 12.5067 10.3332 12.6534V16.0667H12.2932C12.332 16.0709 12.3683 16.0881 12.3961 16.1154C12.4239 16.1427 12.4417 16.1787 12.4466 16.2174C12.4518 16.2428 12.4495 16.2692 12.4399 16.2934ZM14.1466 12.6534V16.9467C14.1466 17.1067 14.1466 17.16 13.9199 17.16C13.7066 17.1734 13.4932 17.1734 13.2799 17.16C13.2509 17.1646 13.2211 17.1622 13.1932 17.1531C13.1652 17.144 13.1398 17.1284 13.119 17.1076C13.0982 17.0868 13.0826 17.0614 13.0735 17.0334C13.0644 17.0055 13.062 16.9758 13.0666 16.9467V12.6534C13.0595 12.6183 13.062 12.5821 13.0737 12.5483C13.0854 12.5146 13.1059 12.4846 13.1331 12.4614C13.1603 12.4383 13.1932 12.4229 13.2284 12.4168C13.2636 12.4107 13.2998 12.4141 13.3332 12.4267H13.9599C13.9874 12.4283 14.0143 12.4355 14.0389 12.448C14.0635 12.4605 14.0853 12.4779 14.1028 12.4992C14.1203 12.5205 14.1333 12.5452 14.1408 12.5717C14.1483 12.5982 14.1503 12.626 14.1466 12.6534Z" fill="#222222"/>
</g>
</svg>
