<svg xmlns="http://www.w3.org/2000/svg" viewBox="0 0 100 100" role="img" aria-label="hiro.">
  <rect width="100" height="100" rx="22" fill="#f7f5f0"/>
  <path transform="matrix(0.04042041441450924,0,0,-0.04042041441450924,17.640739060699044,80.0)" d="M362.7939453125 1472.798583984375V55.199462890625Q362.7939453125 41.9996337890625 368.49395751953125 34.0997314453125Q374.1939697265625 26.1998291015625 386.7939453125 23.599853515625L441.594970703125 14.1998291015625Q451.994873046875 12.39990234375 451.994873046875 6.39990234375Q451.994873046875 0 443.594970703125 0H40.80029296875Q38.0003662109375 0 35.60040283203125 1.79998779296875Q33.200439453125 3.5999755859375 33.200439453125 6.39990234375Q33.200439453125 8.9998779296875 36.1004638671875 11.4998779296875Q39.00048828125 13.9998779296875 46.00048828125 14.9998779296875L100.00146484375 23.599853515625Q113.201416015625 26.1998291015625 118.6014404296875 34.0997314453125Q124.00146484375 41.9996337890625 124.00146484375 54.3994140625V1373.200439453125Q124.00146484375 1379.2003173828125 121.00152587890625 1382.6002807617188Q118.0015869140625 1386.000244140625 110.6016845703125 1386.000244140625H45.60009765625Q41.000244140625 1386.000244140625 38.9002685546875 1388.1002197265625Q36.80029296875 1390.2001953125 36.80029296875 1393.0001220703125Q36.80029296875 1396.60009765625 39.20025634765625 1398.2000732421875Q41.6002197265625 1399.800048828125 45.2001953125 1400.800048828125L331.7945556640625 1480.5985107421875Q340.994384765625 1483.198486328125 344.49432373046875 1483.7984619140625Q347.9942626953125 1484.3984375 351.994140625 1484.3984375Q357.39404296875 1484.3984375 360.093994140625 1480.9984741210938Q362.7939453125 1477.5985107421875 362.7939453125 1472.798583984375ZM343.194580078125 686.6004638671875 333.19482421875 697.2001953125 369.194580078125 729.4000244140625Q467.794189453125 817.7998046875 540.3935546875 857.6993408203125Q612.992919921875 897.598876953125 676.392822265625 897.598876953125Q767.79296875 897.598876953125 818.6930541992188 840.2984619140625Q869.5931396484375 782.998046875 885.193359375 661.197509765625L959.9937744140625 60.7998046875Q961.9937744140625 44.7998046875 968.493896484375 34.69976806640625Q974.9940185546875 24.5997314453125 990.3941650390625 21.999755859375L1038.7947998046875 13.3997802734375Q1044.1947021484375 12.7998046875 1046.294677734375 10.89984130859375Q1048.3946533203125 8.9998779296875 1048.3946533203125 6.39990234375Q1048.3946533203125 3.5999755859375 1046.294677734375 1.79998779296875Q1044.1947021484375 0 1039.9947509765625 0H630.2001953125Q621.000244140625 0 621.000244140625 6.39990234375Q621.000244140625 11.599853515625 632.2001953125 14.1998291015625L688.601318359375 23.599853515625Q705.00146484375 26.1998291015625 711.4014892578125 36.29986572265625Q717.801513671875 46.39990234375 715.801513671875 60.7998046875L650.000732421875 636.79833984375Q639.600341796875 717.80029296875 611.7996215820312 755.1011962890625Q583.9989013671875 792.402099609375 528.397705078125 792.402099609375Q491.39697265625 792.402099609375 455.29620361328125 773.7017211914062Q419.1954345703125 755.0013427734375 377.994384765625 717.600341796875Z" fill="#17120e"/>
  <circle cx="74.02" cy="78.60" r="7.0" fill="#2f4a3a"/>
</svg>
