<svg width="16" height="16" viewBox="0 0 16 16" fill="none" xmlns="http://www.w3.org/2000/svg">
<path d="M12.9985 5.32656L8.00002 10.1984L3.00159 5.32656C2.91231 5.23961 2.79261 5.19095 2.66799 5.19095C2.54337 5.19095 2.42367 5.23961 2.3344 5.32656C2.29093 5.36879 2.25637 5.41932 2.23278 5.47514C2.20918 5.53096 2.19702 5.59096 2.19702 5.65156C2.19702 5.71217 2.20918 5.77216 2.23278 5.82798C2.25637 5.88381 2.29093 5.93433 2.3344 5.97656L7.65159 11.1594C7.74491 11.2501 7.8699 11.3008 8.00002 11.3008C8.13014 11.3008 8.25514 11.2501 8.34846 11.1594L13.6656 5.97656C13.7094 5.93431 13.7441 5.88369 13.7679 5.82772C13.7916 5.77175 13.8038 5.71158 13.8038 5.65078C13.8038 5.58998 13.7916 5.52981 13.7679 5.47384C13.7441 5.41787 13.7094 5.36725 13.6656 5.325C13.5764 5.23805 13.4567 5.18939 13.3321 5.18939C13.2074 5.18939 13.0877 5.23805 12.9985 5.325V5.32656Z" fill="#5C3A2E"/>
</svg>
