<svg width="32" height="32" viewBox="0 0 32 32" fill="none" xmlns="http://www.w3.org/2000/svg">
<path d="M10.6668 22.6667L9.3335 29.3334M21.3335 22.6667L22.6668 29.3334" stroke="#757575" stroke-width="2" stroke-linecap="round" stroke-linejoin="round"/>
<path d="M16.0001 17.3334C13.9707 17.3334 11.8267 17.724 10.1441 18.2454C8.87741 18.6374 7.85874 20.4294 8.01608 21.884C8.07474 22.4227 8.49208 22.6667 8.93074 22.6667H23.0694C23.5094 22.6667 23.9254 22.4227 23.9841 21.884C24.1414 20.4294 23.1227 18.6374 21.8561 18.244C20.1747 17.7254 18.0294 17.3334 16.0001 17.3334Z" stroke="#757575" stroke-width="2" stroke-linecap="round"/>
<path d="M21.0307 18.6667C22.684 16.576 24 13.824 24 11.14C24 5.74002 20.4187 2.66669 16 2.66669C11.5813 2.66669 8 5.74002 8 11.14C8 13.824 9.31733 16.576 10.9693 18.6667" stroke="#757575" stroke-width="2"/>
<path d="M18.2268 2.66669C18.5055 4.17735 18.6668 6.09069 18.6668 8.36535C18.6668 11.5907 18.1815 14.904 17.5922 17.3334M13.7735 2.66669C13.4948 4.17735 13.3335 6.09069 13.3335 8.36535C13.3335 11.5907 13.8188 14.904 14.4082 17.3334" stroke="#757575" stroke-width="2"/>
</svg>
