<svg width="32" height="32" viewBox="0 0 32 32" fill="none" xmlns="http://www.w3.org/2000/svg">
<path d="M11.9688 23.5H18.0312C19.8788 23.4979 21.6501 22.763 22.9566 21.4566C24.263 20.1501 24.9979 18.3788 25 16.5312V15.5H26.5C27.6935 15.5 28.8381 15.0259 29.682 14.182C30.5259 13.3381 31 12.1935 31 11C31 9.80653 30.5259 8.66193 29.682 7.81802C28.8381 6.97411 27.6935 6.5 26.5 6.5H5V16.5312C5.0021 18.3788 5.73698 20.1501 7.04342 21.4566C8.34986 22.763 10.1212 23.4979 11.9688 23.5ZM25 8.5H26.5C27.163 8.5 27.7989 8.76339 28.2678 9.23223C28.7366 9.70107 29 10.337 29 11C29 11.663 28.7366 12.2989 28.2678 12.7678C27.7989 13.2366 27.163 13.5 26.5 13.5H25V8.5ZM7 8.5H23V16.5312C22.9985 17.8486 22.4745 19.1115 21.543 20.043C20.6115 20.9745 19.3486 21.4985 18.0312 21.5H11.9688C10.6514 21.4985 9.38846 20.9745 8.45696 20.043C7.52546 19.1115 7.00149 17.8486 7 16.5312V8.5ZM1 26H31V28H1V26Z" fill="#757575"/>
</svg>
