<svg xmlns="http://www.w3.org/2000/svg" width="512" height="512" viewBox="0 0 512 512" fill="none"><metadata><rdf:RDF xmlns:rdf="http://www.w3.org/1999/02/22-rdf-syntax-ns#" xmlns:dc="http://purl.org/dc/elements/1.1/"><rdf:Description><dc:creator>RealFaviconGenerator</dc:creator><dc:source>https://realfavicongenerator.net</dc:source></rdf:Description></rdf:RDF></metadata><rect width="512" height="512" fill="white"></rect><path d="M223 165.8V349C223 356.2 223.8 361.667 225.4 365.4C227 369.133 230.067 371.667 234.6 373C239.4 374.067 246.2 374.6 255 374.6H298.6C314.067 374.6 326.333 369.8 335.4 360.2C344.467 350.333 350.333 337.533 353 321.8C353 321 353.667 320.733 355 321C356.6 321 357.4 321.4 357.4 322.2C356.6 329.4 355.8 338.2 355 348.6C354.2 358.733 353.8 368.2 353.8 377C353.8 381 351.8 383 347.8 383H163C162.467 383 162.2 382.2 162.2 380.6C162.2 379 162.467 378.2 163 378.2C172.6 378.2 179.8 377.533 184.6 376.2C189.667 374.867 193 372.2 194.6 368.2C196.2 364.2 197 358.333 197 350.6V165.4C197 157.667 196.2 151.933 194.6 148.2C193 144.2 189.667 141.533 184.6 140.2C179.8 138.6 172.6 137.8 163 137.8C162.467 137.8 162.2 137 162.2 135.4C162.2 133.8 162.467 133 163 133C169.4 133 176.6 133.267 184.6 133.8C192.6 134.067 201 134.2 209.8 134.2C219.133 134.2 227.8 134.067 235.8 133.8C243.8 133.267 250.867 133 257 133C257.8 133 258.2 133.8 258.2 135.4C258.2 137 257.8 137.8 257 137.8C247.4 137.8 240.067 138.6 235 140.2C230.2 141.533 227 144.2 225.4 148.2C223.8 152.2 223 158.067 223 165.8Z" fill="black"></path></svg>